<!--?xml version="1.0" encoding="utf-8"?--><!-- Generator: Adobe Illustrator 26.0.3, SVG Export Plug-In . SVG Version: 6.00 Build 0)  --><svg version="1.1" id="Livello_1" xmlns="http://www.w3.org/2000/svg" xmlns:xlink="http://www.w3.org/1999/xlink" x="0px" y="0px" viewBox="0 0 500 500" style="enable-background:new 0 0 500 500;" xml:space="preserve"><style type="text/css">	.st0{fill:#C3EAF4;}	.st1{fill:#FFEBED;stroke:#263238;stroke-miterlimit:10;}	.st2{opacity:0.5;fill:#FFEBED;stroke:#263238;stroke-miterlimit:10;enable-background:new    ;}	.st3{fill:#263238;}	.st4{fill:#F4E9CE;}	.st5{fill:#E2CC93;}	.st6{fill:#263238;stroke:#263238;stroke-width:0.75;stroke-linecap:round;stroke-linejoin:round;}	.st7{fill:#FFEBED;stroke:#263238;stroke-width:0.75;stroke-linecap:round;stroke-linejoin:round;}	.st8{fill:none;stroke:#263238;stroke-width:0.75;stroke-linecap:round;stroke-linejoin:round;}	.st9{fill:#FFEBED;}	.st10{clip-path:url(#SVGID_00000168817862427284738220000011529023092014441139_);}	.st11{fill:#E5B3BD;}	.st12{fill:none;stroke:#263238;stroke-linecap:round;stroke-linejoin:round;}	.st13{fill:none;stroke:#263238;stroke-width:2;stroke-linecap:round;stroke-linejoin:round;}	.st14{fill:#93A8E2;stroke:#000000;stroke-miterlimit:10;}	.st15{fill:#D497FF;stroke:#263238;stroke-width:0.75;stroke-linecap:round;stroke-linejoin:round;}	.st16{clip-path:url(#SVGID_00000113329105920324862740000005907661579002673338_);}	.st17{clip-path:url(#SVGID_00000021804569062712151820000010463788974311735943_);}	.st18{clip-path:url(#SVGID_00000075143136086701864980000010290247593303111572_);}	.st19{fill:#B2E293;stroke:#263238;stroke-width:0.75;stroke-linecap:round;stroke-linejoin:round;}</style><g id="freepik--background-simple--inject-236">	<path class="st0" d="M87.8,332.6c0,0,41.3,52.4,112,54.5s133.9-41.9,186-76.2S455,219.1,429,171.7s-73.3-31.2-130-64.5		s-66.8-50.8-132.5-47.8s-120.2,73.2-117.8,152S87.8,332.6,87.8,332.6z" style="fill: rgb(195, 234, 244);"></path></g><g id="freepik--Clouds--inject-236">	<path class="st1" d="M399.4,249.3c-4.3-2.3-6.2-0.4-7.8-2.3s4.3-7-7.4-12.1c0,0-0.8-10.9-16.7-11.3s-11.7,10.9-16,13.6		s-5.5-1.6-9.7,1.2s-2.3,8.2-5.8,8.9s-8.2-3.5-12.4-0.8s-4.3,5-6.2,5s-5.8-1.6-8.2,0s-5.1,3.5-5.1,3.5h98.4		C402.5,255.1,403.6,251.6,399.4,249.3z" style="fill: rgb(255, 235, 237); stroke: rgb(38, 50, 56);"></path>	<path class="st2" d="M399.4,249.3c-4.3-2.3-6.2-0.4-7.8-2.3s4.3-7-7.4-12.1c0,0-0.8-10.9-16.7-11.3s-11.7,10.9-16,13.6		s-5.5-1.6-9.7,1.2s-2.3,8.2-5.8,8.9s-8.2-3.5-12.4-0.8s-4.3,5-6.2,5s-5.8-1.6-8.2,0s-5.1,3.5-5.1,3.5h98.4		C402.5,255.1,403.6,251.6,399.4,249.3z" style="fill: rgb(255, 235, 237); stroke: rgb(38, 50, 56);"></path>	<path class="st1" d="M145.4,260.7c-2.9-1.6-4.2-0.3-5.3-1.6s2.9-4.8-5-8.2c0,0-0.5-7.4-11.4-7.7s-7.9,7.4-10.8,9.3		s-3.7-1.1-6.6,0.8s-1.6,5.6-4,6.1s-5.6-2.4-8.5-0.5s-2.9,3.4-4.2,3.4s-4-1.1-5.6,0s-3.4,2.4-3.4,2.4h66.9		C147.5,264.6,148.3,262.3,145.4,260.7z" style="fill: rgb(255, 235, 237); stroke: rgb(38, 50, 56);"></path>	<path class="st2" d="M145.4,260.7c-2.9-1.6-4.2-0.3-5.3-1.6s2.9-4.8-5-8.2c0,0-0.5-7.4-11.4-7.7s-7.9,7.4-10.8,9.3		s-3.7-1.1-6.6,0.8s-1.6,5.6-4,6.1s-5.6-2.4-8.5-0.5s-2.9,3.4-4.2,3.4s-4-1.1-5.6,0s-3.4,2.4-3.4,2.4h66.9		C147.5,264.6,148.3,262.3,145.4,260.7z" style="fill: rgb(255, 235, 237); stroke: rgb(38, 50, 56);"></path>	<path class="st1" d="M193.1,289.5c-2.9-1.6-4.2-0.3-5.3-1.6s2.9-4.8-5-8.2c0,0-0.5-7.4-11.4-7.7s-7.9,7.4-10.9,9.3		s-3.7-1.1-6.6,0.8s-1.6,5.6-4,6.1s-5.6-2.4-8.5-0.5s-2.9,3.4-4.2,3.4s-4-1.1-5.6,0s-3.4,2.4-3.4,2.4h66.9		C195.2,293.4,196.1,291,193.1,289.5z" style="fill: rgb(255, 235, 237); stroke: rgb(38, 50, 56);"></path>	<path class="st2" d="M193.1,289.5c-2.9-1.6-4.2-0.3-5.3-1.6s2.9-4.8-5-8.2c0,0-0.5-7.4-11.4-7.7s-7.9,7.4-10.9,9.3		s-3.7-1.1-6.6,0.8s-1.6,5.6-4,6.1s-5.6-2.4-8.5-0.5s-2.9,3.4-4.2,3.4s-4-1.1-5.6,0s-3.4,2.4-3.4,2.4h66.9		C195.2,293.4,196.1,291,193.1,289.5z" style="fill: rgb(255, 235, 237); stroke: rgb(38, 50, 56);"></path></g><g id="freepik--Palms--inject-236">	<path class="st3" d="M384.3,168.6c0.2,1.5,0.4-1.4,0.5-3.8C384.4,166,384.3,167.3,384.3,168.6z" style="fill: rgb(38, 50, 56);"></path>	<path class="st3" d="M369.9,187.8c-0.5,0.9-1,1.8-1,1.8L369.9,187.8z" style="fill: rgb(38, 50, 56);"></path>	<path class="st3" d="M405.7,175.4c0.9,0.8,1.9,1.6,3,2.2l-3-5.6c0,0,2.7,2.1,2.1,1.1s-6.2-8.1-6.2-8.1s6.7,6.1-1.5-3.1		c-1.7-1.8-3.2-3.5-4.7-4.9l-0.3-1l2.9,3.4l-2.3-5.8c0.8,1.3,0.8-1.6,0.8-1.6l-4.3-7.8c0,0,2.9,4,2.6,3s-1.5-3.1-4.1-7		c-1.4-2.1-5-3.9-8-5.1c-0.7-1-1.8-2.3-1.8-2.3c1.3,0.6,2.6,1.5,3.7,2.4c0.8,0.9-1-1.7-1-1.7s4.3,3.4,5.8,4s-0.7-2.7-0.7-2.7		l3.4,2.3l4.8,6.6c0,0-4.2-9.5-2.2-8.7s1.3,1.2,1.8,2.1l1.5,2.5c0,0,3.6,8.1,5.3,10.9s-1.8-7.5-1.8-7.5l2.6,4.4		c-0.1-1.1-0.4-2.2-0.8-3.3c-0.4-0.6,1.8,2.6,1.8,2.6c-0.3-1.6-0.8-3.1-1.3-4.6c-0.5-0.9,3.9,3.2,3.9,3.2l-3.8-6.4l5.6,4.1		c0,0-9.2-9.4-12.3-12.7s-3.3-1.8-4.5-2.8s-6.8-0.3-6.8-0.3l3.3-0.8c0,0-5.8-1.1-7.6-1.2s-12,1.9-12,1.9c1.4-1.4,2.8-2.8,4-4.3		c1.2,0.2,2.3,0.6,3.3,1.2c1.4,0.9-1.3-2.7-1.3-2.7l2.9,1.4l-1.1-3.3l1.2,0.1c1.2,0.1,2,0.5,5.7,2.9s3.5,1.1,3.5,1.1l-1.5-1.7		l-1.2-2.5l-1-0.8l-2.7-2.2l4.8,0.9l-5-4.2c0,0,4.6,0.5,7.1,2.4s2.1,2.2,2.1,2.2l1.8,6.4l0.8-3.6l2.7,2.1c0,0-0.3-3-0.5-4.3		s3,2.2,3.9,2.8s-1.9-3.2-2.9-4.9s3.5,0.5,3.5,0.5l-2.6-2.5l2.9,0.6l0.3-1.9l-2.5-1.3l-2.4-1.2l3.5,0.2c-4-1.6-8.3-2.5-12.5-2.9		c-6.5-0.4-8.8,0.6-8.8,0.6l2.3-3.4l-5,2.7l3-5.5l-3.7,3.3l2.4-4.2l-1.3,0.8l-4.5,6.9l-1.5,0.9l-2.6,3.3l-5.1,1.6l3.6,0.7l-5.5,2.4		l3.8,0.6c0,0-4.4,0.3-5.4,0.6s1.8,0.1,1.8,0.1l-5.5,0.9c0,0,4.7,1.2,5.5,1.6s-1.3,0.2-4.1,1.3c-0.8,0.3-1.6,0.7-2.3,1.2		c-0.3-2.4-0.8-4.7-1.4-7c-3.4-12.6-4-13.6-5.9-15.4s-5.8-3.1-5.8-3.1s3.4,3.4,2.9,2.9s-6.3-2-5.5-1.6s4.7,3.5,4.7,3.5l-5.5-0.2		c0,0,4.6,1.6,3.8,1.5c-1.2,0.1-2.5,0.2-3.7,0.5l2.8,0.9l-2.8,1.1l2.7,0.7l-4.2,2.5l-0.7,1.2c-0.2-0.2-0.5-0.4-0.7-0.7		c-7.1-5.8-11.1-11.1-15.8-12.7s-11.5-3-14.1-2.6c-1.4,0.2-4.5,1.2-6.9,1.9c3.5-0.4,8.6-0.6,8.6-0.6s-7.1,3.9-4.9,2.9		s8.6-1.4,8.6-1.4s-5.4,0.6-2.6,1s5.7,0.9,5.7,0.9s-8.3,1.4-4.4,1.7s7,0.7,7,0.7s-3.6,0.7-1.5,0.9s4.6,0.5,4.6,0.5s-7.6,0.7-4.7,0.8		c2.1,0.1,4.2,0.2,6.3,0.6c0,0-5.8,1.7-4.1,1.8c1.7,0.2,3.5,0.5,5.1,1c0,0-6.2,1.1-4.6,1c0.9-0.1,2.8,0,4.5,0l2.7,0.1l1.3,1.8		c0,0-7.5-0.1-4.8,0.6l1.3,0.3c-1.6,0.4-3.2,1-4.6,1.7c-9,4.2-16.6,8.1-15.7,7.8s7.3-1.7,6.6-1.3c-0.3,0.2-1.9,1-3.4,1.7		c2.9-1.1,7.2-2.5,7.2-2.5s-8.5,5-6.2,4s9.1-3.4,9.1-3.4l-4.7,2.6c1.5-0.9,9.4-3.5,9.4-3.5s-9.2,4.3-6,3.8c1-0.2,2-0.4,2.9-0.6		c0.1,0.1,0.1,0.2,0.2,0.2c1.6,0.8,8.3-0.9,8.3-0.9s-6.5,3-3.8,2.2c2.1-0.5,4.3-0.9,6.4-1.2c0,0-7.1,3-5.1,2.4s7.9-1.5,7.9-1.5		s-6.9,2.9-5.3,2.6c1.5-0.2,3.1-0.4,4.6-0.4c0,0-7.1,1.9-5.2,1.9c1.6,0,3.3,0.2,4.9,0.5l1.7,1.9c0,0-13.7-3.4-21.2-2.6		c-7.6,0.7-14.1,0.9-17.7,3l-10.8,6.4c0.9-0.5,11.2-3.8,11.2-3.8s-9.3,4.6-6.5,4.1c2.9-0.7,5.7-1.6,8.4-2.7c0,0-10.4,6.1-7.3,5.1		s11.6-5.1,11.6-5.1s-8.1,5.6-6.5,5.5s11.1-4,11.1-4l-5.7,3.9l7-2.7c0,0-4.6,3.3-3.4,3.4s7.1-1.6,7.1-1.6l-3,1.8l10.1-2.8		c0,0-5.3,3.1-4.3,2.8s8.2-2.6,8.2-2.6s-5.5,2.7-4.2,2.5s11.3-3.5,11.3-3.5l-5.6,4.5l0.9-0.3l4.2-1.3c0,0,1.2,2.1-0.2,2.1		s-7.1,1-7.1,1s-5.9,2.1-8.2,3.1s-4.7,2.2-4.7,2.2l8.2-1.1l-6.6,2.8l3.7-0.5l-5.7,3.4l3-0.6l-6.1,3.6c0,0,5-1.8,4.2-1.1		s-7.2,6.2-7.2,6.2c0.5,1.4-4.8,7.4-4.1,7s4.6-2.4,4.6-2.4s-6.2,4.5-5.2,4.2s7.8-3.7,7.8-3.7s-5.7,4.8-6.2,5.4s2,0,2,0l-2,3.4		c2.4,0.1,4.8,0,7.3-0.3c1.5-0.3,2.9-0.9,4.2-1.6l1.6-2.1l0.7,2.1l0.6-5.8l1.1,4.8l-0.2-7.6l1.2,5.9l0.7-2.1l1.4,2.9l2.6-6.7		l0.7,3.6l2.7-5.6l-0.6,6.3l-3.8,10.4c-7.8,10.4-18.3,24.1-30.4,39.9c-17,22.1-58.8,64.6-58.8,64.6s-17.8,25-28.6,43.3		c4.2-1.9,8.5-3.5,13-4.7c3.3-6.1,6.9-12,10.8-17.8c22.3-32.9,51.2-58.4,60.5-69s31.3-43.9,33.8-48.8c2.4-4.2,5.1-8.2,8.2-11.9		l1.6-1.7l-0.9,2.8l3.8-5.7l0.1,1.1l3.3-3l1-0.9l2.8-2.5l-2.6,3.8l4.5-2.6l-3.3,3.6l5.3-0.2l-3.8,2.2c0,0,4.6,0.1,3.5,0.2		s-6.4,1.2-6.4,1.2l5.6,0.7l-7.8,2.3l5.9,0.3l-7.1,1.6l6.1,0.1l-9.2,2.3l7.7-0.5c0,0-9,1.6-8.1,2.2s8.6,1,8.6,1l-5.8,2.8l5.1-0.5		l-4.9,2.9l5.4-1.5l-6.2,3.9l5.3-1.7l-5.3,3.7l1.4,0.9l-1,2.6l5-2.7l-5.9,4.6l4.2-2.5l-2.7,4.2l3.3-1.7l-3.1,3.9l3.2-1.9l-2.3,3.4		l4.8-6.3l1.2-1.5l1.9-3.1l0.4,2.1l1.8-3.3c0,0,0.9-3.4,1.5-2.3c0.5,1.1,1,2.3,1.2,3.6l0-5.7l1.5-9.1l1.7,3c0,0-0.2-5.6,0.3-4.8		s1.8,3.5,1.8,3.5l-0.8-5.8l4.7,4.1l-3.6,4.1l3.8-0.8l-4.5,3l4.2-0.2l-6.6,3.9l4.9-0.3l-6,3.8l4.7-1.6l-6.2,5.1l5.8-2.3l-5.8,6.6		l6.1-2.2l-4.8,5.4l4.1-1.8l-2.6,2.9l2-0.9l-1.6,3.1l-2,3.9l0.5,1.7l5.4-5.4l-3.8,7.6l4.6-3.3l-3.5,7.2l3.9-4.1l1.2-1.3l2.9-3.4		l0.1,2.5l1.2-3.8l0.6,1.1c0,0-2-10.2-1.3-9s2.4,8.9,2.4,8.9s0.1-6.6,0-10.6s0.2-4.4,1.1-8.3s1.1-7.8,1.4-9.7		c0.4-2.1,0.6-4.2,0.6-6.3c0-2.3,0.4-1.5,0.3-2.6c0-0.5-0.2-1.5-0.5-3.6c-0.7-3.9-1.1-7.9-1.3-11.8l3.6,8.1l-0.4,10.5		c0,0,1-10,1.2-9c0.2,2.3,0.4,4.6,0.4,6.9c0,0,1.2-5.3,1.3-4.2s-0.9,10.2-0.9,10.2s2.4-7.1,2.8-5.4s-1.2,8.7-1.2,8.7		s2.9-7.1,2.7-4.7s-3.7,14.1-3.7,14.1s4.5-11.2,4.9-10c0.4,0.8,0.9,1.6,1.6,2.2l-2.5,4.5c0.8-1.4,1.9-2.9,2.2-2.1		c0.5,1.4-1.6,8.4-1.6,8.4s3.3-7.1,3.7-5.3s-3.6,9.8-3.6,9.8l3.6-3.6c0,0-3.5,5.2-2.6,4.7s5-4.6,5-4.6l-3.1,5.8l3.8-2.8l-3,4.6		l3.4-2.6l-2.5,4.6c0,0,2.5-4,2.4-2.3c-0.3,1.9-0.9,3.7-1.6,5.5c0,0,3.5-8.6,4-7.8c0.5,1.2,0.8,2.4,1,3.7c0,0,0.5-9.4,1.3-7.9		c0.6,0.9,1,1.9,1.4,2.9l-1.9-8l2.1,4.5c0,0-3.4-11.1-3-10.5l-1.6-2.8c0,0,2.6-2.4,1.2-10.1s-3.3-12.9-3.9-14s3.1,3.9,3.1,3.9		s-1.7-4.4-1-3.7c1.2,1.7,2.4,3.5,3.5,5.4c0,0-1.1-6.8-0.6-5.9s2.1,7.9,2.1,7.9l1.4-3.4c0,0,0,1.1-0.1,2.5c0.7-3.4,2-7.6,2-7.6		l-0.4,8.5c0,0,1.8-5.6,2.2-4.5s0,5.7,0,5.7s1.9-3,2.6-4.1c-0.3,1.5-0.5,3.1-0.6,4.6l2.2-3l-1.8,5.6l2.8-2l-2.4,5.8l3.2-3.3l-1,3.7		c0,0,2.9-4.3,2.5-2.6c-0.6,1.9-1.3,3.8-2.1,5.6c0,0,3.3-3.6,3.2-1.9c-0.4,2.3-1,4.5-1.8,6.7c0,0,4.2-5.9,4.1-4.7		c-0.2,1.1-0.5,2.1-1,3.2c0,0,1.8-2.8,2.1-1.8c0.2,1.4,0.2,2.9,0,4.3c0,0,1.1-2.9,1.4-2s0.6,3.1,0.6,3.1s-0.4-4.1,0.4-1.4		c0.4,1.6,0.7,3.3,0.7,5l0.5-6.9l1.9,5.2c0,0-1.1-8.2-0.7-7.6s2.2,2.7,1.9,1.7S404.4,174.1,405.7,175.4z M336,113.4l3-0.4l3.1,0.4		l-3.9,2.3C337.5,114.9,336.7,114.1,336,113.4L336,113.4z M347.9,124.3c-1.1,0.1-2.5,0.1-2.5,0.1l2.2,1.3l-2,0.1		c-2.2-3.4-4.6-6.7-7.2-9.8l2.2-0.2c1.8-0.2,3.8-0.3,3.4-0.1c-0.6,0.4,0.5,1.4,0.5,1.4s-4.2,1.6-3.2,1.3c1.1-0.2,2.3-0.2,3.4,0		l-1.6,1.2l1.3,0.7l0.8,0.4l1.2,1.6l-1.4,0.5C345.1,122.9,349,124.2,347.9,124.3L347.9,124.3z M378.9,143.7l0.3-0.7l0.7,1.2		C379.6,144,379.2,143.9,378.9,143.7L378.9,143.7z M382.6,145.9l-0.4-0.2c-0.2-1.1-0.5-2.1-0.5-2.1s0.5,1.2,1.1,2.5L382.6,145.9z		 M384.4,147.2c-0.2-1-0.4-1.9-0.4-1.9l1.1,2.4L384.4,147.2z M387.4,149.5c0-0.6-0.1-1-0.1-1s0.1,0.5,0.3,1.2L387.4,149.5z" style="fill: rgb(38, 50, 56);"></path>	<path class="st3" d="M304,122.2c-0.7,0.3-1.5,0.6-2.2,1C301,123.7,302.4,123,304,122.2z" style="fill: rgb(38, 50, 56);"></path>	<path class="st3" d="M296.9,97.9c-1.1,0-2.2,0.3-3.2,0.7C293.2,99,294.8,98.5,296.9,97.9z" style="fill: rgb(38, 50, 56);"></path>	<path class="st3" d="M73.6,92.6c-0.1,0.6,0.9-0.7,2.3-2.4C75,90.8,74.2,91.6,73.6,92.6z" style="fill: rgb(38, 50, 56);"></path>	<path class="st3" d="M95.4,106.4c-0.5,0.6-0.9,1.3-1.2,2C93.7,109.3,94.5,108,95.4,106.4z" style="fill: rgb(38, 50, 56);"></path>	<path class="st3" d="M186.1,96.4c0.4,1.2,1,2.4,1.8,3.4C188.9,101.1,187.4,98.5,186.1,96.4z" style="fill: rgb(38, 50, 56);"></path>	<path class="st3" d="M106.6,121.7l6.8-8c0,0-2.7,5.6-2,4.8s5.4-6.7,5.4-6.7s-3.1,5.3-2.1,4.4s7.4-9.3,7.4-9.3l-2.2,6.9l0.6-0.7		l2.8-3.4c0,0,2.2,1.1,1,1.8s-5.3,4.8-5.3,4.8s-3.8,5-5,7.2s-2.7,4.5-2.7,4.5l6.2-5.5l-4,6l2.8-2.5l-2.8,6l2.2-2.2l-3.1,6.5		c0,0,3.1-4.2,2.9-3.3s-2.5,9.2-2.5,9.2c1.2,0.9,0.2,8.8,0.5,8.1s2.4-4.6,2.4-4.6s-2.6,7.2-2,6.4s4.4-7.5,4.4-7.5s-2.1,7.2-2.2,8		s1.6-1.1,1.6-1.1l0.3,4c2-1.3,4-2.8,5.9-4.3c1-1.1,1.9-2.3,2.6-3.7l0.2-2.7l1.8,1.4l-2.7-5.1l3.6,3.4l-4.4-6.2l4.3,4.2l-0.6-2.2		l2.8,1.6l-1.6-7l2.6,2.6l-0.9-6.2l3.1,5.6l2.6,10.8c-0.7,13-1.7,30.3-2.9,50.2c-1.7,27.9-12.6,86.6-12.6,86.6s-1.3,49.1,2,66.3		c1.2,5.9,2,12,2.4,18c3.7-1.9,7.9-4,12.4-6.3c-4.1-10.9-9.3-29.6-9.2-57.9c0.1-39.8,9.8-77.3,11.5-91.2s1.4-54,0.8-59.5		c-0.4-4.8-0.4-9.7,0.2-14.5l0.4-2.3l0.8,2.9v-6.8l0.7,0.9l1-4.3l0.3-1.3l0.9-3.7v4.6l2.2-4.7l-0.7,4.9l4.2-3.2l-1.9,4		c0,0,3.9-2.5,3-1.8c-0.9,0.7-4.6,4.6-4.6,4.6l5-2.5l-5,6.3l5-3.1l-5,5.3l5.1-3.3l-6.4,7.1l6.1-4.8c0,0-6.6,6.4-5.5,6.4s7.6-4,7.6-4		l-3.2,5.6l4-3.3l-2.4,5.1l3.7-4.3l-2.9,6.8l3.5-4.4l-2.3,6h1.6l0.6,2.8l2.7-5l-2.3,7.1l2.1-4.5l0.1,5l1.8-3.2l-0.4,5l1.6-3.3v4.1		l0.5-7.9l0.1-1.9l-0.2-3.6l1.5,1.5l-0.4-3.7c0,0-1.2-3.3-0.1-2.8c1.1,0.7,2.1,1.4,3,2.3l-3.2-4.8l-3.9-8.4l3.1,1.5		c0,0-3.3-4.6-2.4-4.2c0.9,0.4,3.4,1.9,3.4,1.9l-3.9-4.3l6.2,0.8l-0.7,5.4l2.7-2.8l-2.1,5l3.4-2.5l-3.3,6.9l3.9-3.1l-2.9,6.6l3-4		l-2.3,7.6l3.5-5.1l-1.1,8.7l3.9-5.3l-1,7.2l2.4-3.8l-0.5,3.9l1.2-1.9l0.4,3.4l0.5,4.4l1.4,1.2l1.4-7.5l1.1,8.5l2-5.3l1.1,7.9l1-5.6		l0.3-1.7l0.5-4.4l1.5,2.1l-1.2-4l1.1,0.5c0,0-7.4-7.4-6.1-6.7s6.9,6,6.9,6s-3.6-5.6-5.9-8.8s-2.3-3.8-3.8-7.5s-3.4-7.1-4.2-8.8		c-0.8-2-1.9-3.8-3.1-5.6c-1.3-1.9-0.5-1.5-1.1-2.3c-0.3-0.4-1-1.2-2.5-2.7c-2.7-2.9-5.3-5.9-7.7-9.1l7.6,4.7l5.6,8.9		c0,0-4.8-8.8-4-8.2c1.5,1.8,2.9,3.6,4.2,5.6c0,0-2-5-1.3-4.2s5,8.9,5,8.9s-2-7.2-0.7-6s3.9,7.9,3.9,7.9s-1.6-7.6-0.4-5.4		s4.9,13.8,4.9,13.8s-2.5-11.9-1.5-11.1c0.8,0.5,1.6,0.9,2.6,1l0.5,5.2c-0.1-1.6-0.1-3.5,0.6-3c1.2,0.9,3.3,7.9,3.3,7.9		s-1.2-7.7,0.1-6.5s2.5,10.2,2.5,10.2l1-5c0,0,0,6.3,0.4,5.4s1.5-6.7,1.5-6.7l0.7,6.6l1.6-4.4l0.1,5.5l1.4-4l0.5,5.2		c0,0-0.2-4.7,0.7-3.2c0.8,1.8,1.4,3.6,1.8,5.5c0,0-1.9-9.1-1-8.7c1.1,0.7,2,1.6,2.9,2.5c0,0-4.9-8.1-3.3-7.3c1,0.5,1.9,1,2.8,1.6		l-6.1-5.6l4.2,2.6c0,0-9.1-7.3-8.4-7l-2.9-1.4c0,0,0.8-3.4-4.7-9.1s-10-8.8-11.1-9.4s4.8,1.4,4.8,1.4s-3.9-2.7-2.9-2.5		s5.9,2.5,5.9,2.5s-4.7-5-3.8-4.6s6.2,5.4,6.2,5.4l-0.7-3.6l1.3,2.1c-1.3-3.2-2.6-7.4-2.6-7.4l4.4,7.3c0,0-1.6-5.7-0.6-5		s3.2,4.8,3.2,4.8s-0.1-3.6-0.1-4.9c0.6,1.4,1.3,2.8,2.1,4.2l0.1-3.8l1.6,5.7l1.3-3.2l1.4,6.2l0.8-4.5l1.3,3.7c0,0,0-5.2,0.6-3.5		c0.5,1.9,1,3.9,1.3,5.8c0,0,0.7-4.9,1.6-3.3c0.9,2.1,1.7,4.3,2.3,6.6c0,0,0.2-7.3,0.8-6.2c0.4,1,0.8,2.1,0.9,3.2		c0,0-0.1-3.3,0.7-2.7c0.9,1.1,1.7,2.3,2.4,3.6c0,0-0.7-3.1,0.1-2.4s2.2,2.2,2.2,2.2s-2.6-3.2-0.5-1.3c1.3,1.1,2.4,2.4,3.4,3.8		l-3.4-6l4.5,3.2c0,0-5.5-6.2-4.9-5.9s3.3,1,2.5,0.4s-5.9-3.6-4.1-3.3c1.2,0.2,2.5,0.2,3.7,0.2l-5.7-3c0,0,3.4,0.3,2.3-0.3		s-9.6-3.2-9.6-3.2s8.9,1.3-3-1.7c-2.4-0.6-4.6-1.1-6.6-1.5l-0.8-0.7l4.3,1.2L189,81c1.3,0.6-0.3-1.8-0.3-1.8l-7.9-4		c0,0,4.7,1.7,3.9,1s-3-1.7-7.3-3.5c-2.3-1-6.3-0.4-9.5,0.3c-1.1-0.4-2.8-0.9-2.8-0.9c1.5-0.2,2.9-0.2,4.4-0.1		c1.2,0.3-1.8-0.8-1.8-0.8s5.5,0.4,7,0.1s-2.1-1.8-2.1-1.8h4.1l7.6,2.8c0,0-8.8-5.6-6.7-5.9s1.8,0.3,2.7,0.7l2.7,1.3		c0,0,7.6,4.7,10.5,6.1s-5.7-5.2-5.7-5.2l4.7,2.2c-0.7-0.8-1.6-1.6-2.5-2.3c-0.7-0.3,3,1.2,3,1.2c-1.1-1.1-2.4-2.2-3.7-3.1		c-0.9-0.4,5,0.5,5,0.5l-6.7-3.2l6.9,0.3c0,0-12.9-2.6-17.4-3.6s-3.7,0.4-5.3,0.2s-5.8,3.5-5.8,3.5l2.3-2.5c0,0-5.5,2.3-7,3.2		s-8.9,8.4-8.9,8.4c0.4-1.9,0.7-3.9,0.9-5.9c1.1-0.5,2.2-0.8,3.4-0.8c1.6,0-2.6-1.5-2.6-1.5l3.2-0.4l-2.8-2.2l1.1-0.6		c1.1-0.6,2-0.7,6.4-0.8s3.5-1.1,3.5-1.1l-2.2-0.5l-2.4-1.4l-1.3-0.1l-3.5-0.2l4.5-2l-6.5-0.6c0,0,4-2.2,7.2-2s3,0.6,3,0.6l5,4.3		l-1.4-3.4l3.4,0.3c0,0-1.9-2.3-2.8-3.3s3.8,0.2,4.9,0.1s-3.3-1.6-5.1-2.4s3.2-1.5,3.2-1.5l-3.5-0.6l2.7-1.2l-0.8-1.8l-2.8,0.3		l-2.7,0.3l3-1.8c-4.2,1-8.2,2.5-12,4.6c-5.7,3.3-6.9,5.4-6.9,5.4v-4.1L146,55l-0.6-6.3l-1.2,4.9l-0.4-4.8l-0.6,1.3l0.2,8.3		l-0.7,1.6l-0.4,4.2l-3.3,4.1l3.4-1.4l-3.2,5l3.5-1.6c-1.4,1.1-2.8,2.3-4.1,3.5c-0.6,0.8,1.5-0.9,1.5-0.9l-4,3.8		c0,0,4.6-1.6,5.5-1.8s-1,0.9-2.7,3.4c-0.5,0.7-0.9,1.5-1.2,2.3c-1.6-1.8-3.3-3.5-5.1-5c-9.8-8.5-11-9.1-13.5-9.4s-6.6,0.7-6.6,0.7		s4.8,0.9,4,0.8s-6.3,1.9-5.5,1.8s5.8,0.3,5.8,0.3l-4.7,3c0,0,4.7-1.3,4-0.8c-1,0.8-1.9,1.6-2.8,2.5l2.8-0.8l-1.7,2.5l2.6-0.9		l-2.1,4.4l0.1,1.3l-1-0.1c-9.2-0.8-15.5-3-20.2-1.7s-11.2,4-13.1,5.8c-1,1-3.1,3.5-4.7,5.5c2.7-2.3,6.8-5.3,6.8-5.3		S79,92.1,80.3,90s6.4-6,6.4-6s-4.1,3.5-1.6,2.2s5.2-2.4,5.2-2.4s-6,5.8-2.7,3.9s6.2-3.3,6.2-3.3S91.2,87,93.1,86s4-2.2,4-2.2		s-5.8,4.9-3.5,3.3c1.8-1.1,3.7-2.2,5.6-3.1c0,0-3.9,4.7-2.3,3.8c1.5-0.8,3.2-1.5,4.8-2.1c0,0-4.5,4.4-3.2,3.4		c0.7-0.5,2.3-1.6,3.7-2.5l2.3-1.4l2.1,0.7c0,0-6.3,4.1-3.7,3.1l1.2-0.5c-1.1,1.2-2.1,2.6-2.9,4c-5.1,8.5-9.3,16.1-8.6,15.3		s5.1-5.5,4.8-4.8c-0.2,0.3-1,1.9-1.8,3.3c1.8-2.6,4.5-6.2,4.5-6.2s-4.2,8.9-3,6.8s5.7-7.9,5.7-7.9l-2.3,4.9		c0.7-1.6,5.8-8.2,5.8-8.2s-5.2,8.7-2.8,6.6c0.7-0.7,1.4-1.4,2.1-2.2c0.1,0,0.2,0,0.3,0c1.8-0.3,6.4-5.4,6.4-5.4s-3.7,6.1-1.9,4		c1.5-1.6,3-3.2,4.7-4.6c0,0-4.2,6.5-2.9,4.9s5.7-5.7,5.7-5.7s-4.1,6.2-3,5.1c1.1-1.1,2.3-2,3.6-2.9c0,0-4.8,5.6-3.2,4.5		c1.4-0.9,2.8-1.7,4.4-2.3l2.4,0.6c0,0-13.2,4.9-19.1,9.7s-11.2,8.6-13,12.4c-1.6,3.4-5.1,10.7-5.4,11.4c0.4-0.9,7.2-9.4,7.2-9.4		s-5.1,9-3.1,7c2-2.2,3.9-4.4,5.6-6.8c0,0-5.2,10.9-3.1,8.3s6.7-10.7,6.7-10.7s-3.6,9.2-2.3,8.2s7-9.5,7-9.5l-2.5,6.4l4.3-6.2		c0,0-2,5.3-0.9,4.8s5-5.3,5-5.3L106.6,121.7z M180.1,82.4h-0.3l-0.6-0.8L180.1,82.4z M176.9,82.1h-0.8c-0.7-0.7-1.4-1.3-1.4-1.3		S175.6,81.3,176.9,82.1z M174.1,82h-0.3c-0.1,0-0.3,0-0.4,0l-1.6-1.5C171.8,80.5,172.8,81.2,174.1,82z M170.6,82.1l-1.1,0.1		l-0.1-0.7L170.6,82.1z M117,81.1l2.3-2l2.8-1.4l-2,4.1C119.1,81.6,118,81.3,117,81.1z M120.5,81.9l1.7-1.4c1.4-1.2,3-2.3,2.8-2		c-0.3,0.7,1.2,0.9,1.2,0.9s-2.6,3.7-1.9,2.9c0.9-0.8,1.8-1.4,2.8-1.9l-0.6,1.9l1.4-0.2l0.9-0.1l1.9,0.6l-0.9,1.2		c0,0,4.1-1.1,3.2-0.4s-2.1,1.5-2.1,1.5l2.5-0.2l-1.6,1.2C128.1,84.5,124.3,83.1,120.5,81.9L120.5,81.9z" style="fill: rgb(38, 50, 56);"></path>	<path class="st3" d="M186.8,123.9c0.1,1.1,0.2,2,0.2,2L186.8,123.9z" style="fill: rgb(38, 50, 56);"></path></g><g id="freepik--Dune--inject-236">	<path class="st4" d="M237.6,479.5c-46.9-0.8-108.6-17.3-186.3-21.1s-7.2-50.2,5.4-56.9c28.3-14.9,73.2-30.5,109.9-55.7		s58.3-32.5,96.4-19.1c10.8,3.8,101.4,60.4,151.3,73.2C552.2,435,429.1,482.7,237.6,479.5z" style="fill: rgb(64, 62, 58);"></path>	<path class="st5" d="M87.3,389.7c0,0,61.1-29.2,89.6-46.8s41.4-9.5,39.4,13.6s-34.6,44.1-37.3,48.9s11.5,1.4,51.6-0.7		s69.2-2,52.9,0.7s-52.2,6.8-101.8,21.7s-96.4,24.4-109.9,12.2s63.1-33.9,74-43.4s-51.6,19.7-72.6,17.6S87.3,389.7,87.3,389.7z" style="fill: rgb(47, 47, 45);"></path>	<path class="st4" d="M206.3,419.2c0,0,76.8-17.6,135.2-20s102.2,20,102.2,20" style="fill: rgb(64, 62, 58);"></path>	<path class="st5" d="M317.5,404.2c0,0-12.8,5.2-62.4,11.1s-112.6,27.4-95.1,30.9s36.8,1.2,69.4-5.8s71.8-11.1,58.4-3.5		s-36.8,19.8,25.7,16.3s128.4-13.4,123.1-28s-60.1-8.8-81.7-11.1s2.9-7.6-7-10.5S332.7,400.7,317.5,404.2z" style="fill: rgb(47, 47, 45);"></path></g><g id="freepik--Character--inject-236">	<circle class="st6" cx="238.9" cy="112.6" r="6.9" style="fill: rgb(38, 50, 56); stroke: rgb(38, 50, 56);"></circle>	<circle class="st6" cx="230.6" cy="111" r="6.9" style="fill: rgb(38, 50, 56); stroke: rgb(38, 50, 56);"></circle>	<circle class="st6" cx="221.5" cy="115" r="6.9" style="fill: rgb(38, 50, 56); stroke: rgb(38, 50, 56);"></circle>	<path class="st6" d="M226.4,126.6c0,3.8-3.1,6.9-6.9,6.9c-3.8,0-6.9-3.1-6.9-6.9c0-3.8,3.1-6.9,6.9-6.9l0,0		C223.3,119.7,226.4,122.8,226.4,126.6z" style="fill: rgb(38, 50, 56); stroke: rgb(38, 50, 56);"></path>	<circle class="st6" cx="219.1" cy="140.3" r="6.9" style="fill: rgb(38, 50, 56); stroke: rgb(38, 50, 56);"></circle>	<circle class="st6" cx="219.1" cy="152" r="6.9" style="fill: rgb(38, 50, 56); stroke: rgb(38, 50, 56);"></circle>	<path class="st6" d="M225.2,164.8c0,3.8-3.1,6.9-6.9,6.9c-3.8,0-6.9-3.1-6.9-6.9c0-3.8,3.1-6.9,6.9-6.9S225.2,161,225.2,164.8		C225.2,164.8,225.2,164.8,225.2,164.8z" style="fill: rgb(38, 50, 56); stroke: rgb(38, 50, 56);"></path>	<circle class="st6" cx="217" cy="175.3" r="6.9" style="fill: rgb(38, 50, 56); stroke: rgb(38, 50, 56);"></circle>	<circle class="st6" cx="215.7" cy="185.8" r="6.9" style="fill: rgb(38, 50, 56); stroke: rgb(38, 50, 56);"></circle>	<path class="st6" d="M220.6,197.5c0,3.8-3.1,6.9-6.9,6.9c-3.8,0-6.9-3.1-6.9-6.9c0-3.8,3.1-6.9,6.9-6.9c0,0,0,0,0,0		C217.5,190.6,220.6,193.7,220.6,197.5z" style="fill: rgb(38, 50, 56); stroke: rgb(38, 50, 56);"></path>	<circle class="st6" cx="210.4" cy="208" r="6.9" style="fill: rgb(38, 50, 56); stroke: rgb(38, 50, 56);"></circle>	<circle class="st6" cx="205.8" cy="217.8" r="6.9" style="fill: rgb(38, 50, 56); stroke: rgb(38, 50, 56);"></circle>	<circle class="st6" cx="202.5" cy="227" r="6.9" style="fill: rgb(38, 50, 56); stroke: rgb(38, 50, 56);"></circle>	<circle class="st6" cx="198.3" cy="235.2" r="6.9" style="fill: rgb(38, 50, 56); stroke: rgb(38, 50, 56);"></circle>	<path class="st6" d="M196.1,243.4c-1.2,3.1-4.3,4.7-7.1,3.7s-4-4.4-2.8-7.5s4.3-4.7,7.1-3.7S197.2,240.3,196.1,243.4z" style="fill: rgb(38, 50, 56); stroke: rgb(38, 50, 56);"></path>	<path class="st6" d="M187.1,245.6c0,0-4.6,5.5-9.5,1.4s-4.9-7.9-4.9-7.9s-6.3,5.2-4.1,13.2s15,9,19.1,5.4S187.1,245.6,187.1,245.6z		" style="fill: rgb(38, 50, 56); stroke: rgb(38, 50, 56);"></path>	<path class="st7" d="M292.1,169.5c0,0,11-2.2,18.4,1.3s10.4,12,10.4,12s12.9,4.2,14.8,16.9s-0.5,21.1-6.8,23.6s-15,2.2-23.2-11.2		s-14.5-35.1-15.6-37.6S289.4,170.3,292.1,169.5z" style="fill: rgb(255, 235, 237); stroke: rgb(38, 50, 56);"></path>	<path class="st7" d="M314.5,190.3c0,0-7.4-5.8-13.2-3s-3.5,12.1,3.6,17.2s15.6,3.8,16.5,1.4" style="fill: rgb(255, 235, 237); stroke: rgb(38, 50, 56);"></path>	<path class="st8" d="M320.9,182.8c-0.2,1.8-0.8,3.6-1.7,5.2" style="stroke: rgb(38, 50, 56);"></path>	<path class="st9" d="M247.3,105.6c0,0-8.5,2.6-11.3,13.9s0.4,16,0.4,16s-4.6-4.6-6.9-0.4s3.4,7.7,5.9,8.5s2.8,1,3.4,1		s0.2,4-4.4,12.7s-11.9,12.1-23,15.4s-14.1,14.7-14.1,23s-0.4,22.8,7.7,39.6s20.4,31.7,27.7,40.8s10.5,15.2,6.5,27.7		s-12.7,16.4-9.7,32.1c2.7,14.1,15.9,19.8,28.9,15.7c7.1-2.2,10.4-7.1,16.1-11c5.3-3.7,13.6-4.7,20-4.8c0,0-3.6-4.2-13.3-1.4		s-19.4,10.5-26.9,10.3s-7.1-15.6,3.2-26.9s36.8-20.8,45.9-42.2s-2.4-62-8.7-77.4S284.5,170,284.5,170s-11.5-0.8-13.9-6.1		s-0.4-9.1-0.4-9.1s12.3-6.9,11.7-13.5s-6.7-19.8-12.7-29.3S251.4,102.6,247.3,105.6z" style="fill: rgb(255, 235, 237);"></path>	<g>		<defs>			<path id="SVGID_1_" d="M247.3,105.6c0,0-8.5,2.6-11.3,13.9s0.4,16,0.4,16s-4.6-4.6-6.9-0.4s3.4,7.7,5.9,8.5s2.8,1,3.4,1				s0.2,4-4.4,12.7s-11.9,12.1-23,15.4s-14.1,14.7-14.1,23s-0.4,22.8,7.7,39.6s20.4,31.7,27.7,40.8s10.5,15.2,6.5,27.7				s-12.7,16.4-9.7,32.1c2.7,14.1,15.9,19.8,28.9,15.7c7.1-2.2,10.4-7.1,16.1-11c5.3-3.7,13.6-4.7,20-4.8c0,0-3.6-4.2-13.3-1.4				s-19.4,10.5-26.9,10.3s-7.1-15.6,3.2-26.9s36.8-20.8,45.9-42.2s-2.4-62-8.7-77.4S284.5,170,284.5,170s-11.5-0.8-13.9-6.1				s-0.4-9.1-0.4-9.1s12.3-6.9,11.7-13.5s-6.7-19.8-12.7-29.3S251.4,102.6,247.3,105.6z" style="fill: rgb(0, 0, 0);"></path>		</defs>		<clipPath id="SVGID_00000064342542101826864160000009844777295134098334_">			<use xlink:href="#SVGID_1_" style="overflow:visible;"></use>		</clipPath>		<g style="clip-path:url(#SVGID_00000064342542101826864160000009844777295134098334_);">			<path class="st11" d="M255.5,152.6c-11.9-3.2-19.9-19-18.8-30.5c0.6-5.4,3-10.4,6.7-14.3c-3.8,2.9-6.5,7.1-7.5,11.8				c-2.8,11.3,0.4,16,0.4,16s-4.6-4.6-6.9-0.4s3.4,7.7,5.9,8.5s2.8,1,3.4,1s0.2,4-4.4,12.7c-0.5,0.9-1,1.7-1.5,2.6				c4.6,5.6,13.4,13.2,24.2,11.3c9.7-1.7,12.6-5.2,13.5-7.6c-2.2-5.2-0.3-8.9-0.3-8.9s12.3-6.9,11.7-13.5				C274.1,140.4,267.5,155.7,255.5,152.6z" style="fill: rgb(229, 179, 189);"></path>		</g>	</g>	<path class="st12" d="M247.3,105.6c0,0-8.5,2.6-11.3,13.9s0.4,16,0.4,16s-4.6-4.6-6.9-0.4s3.4,7.7,5.9,8.5s2.8,1,3.4,1		s0.2,4-4.4,12.7s-11.9,12.1-23,15.4s-14.1,14.7-14.1,23s-0.4,22.8,7.7,39.6s20.4,31.7,27.7,40.8s10.5,15.2,6.5,27.7		s-12.7,16.4-9.7,32.1c2.7,14.1,15.9,19.8,28.9,15.7c7.1-2.2,10.4-7.1,16.1-11c5.3-3.7,13.6-4.7,20-4.8c0,0-3.6-4.2-13.3-1.4		s-19.4,10.5-26.9,10.3s-7.1-15.6,3.2-26.9s36.8-20.8,45.9-42.2s-2.4-62-8.7-77.4S284.5,170,284.5,170s-11.5-0.8-13.9-6.1		s-0.4-9.1-0.4-9.1s12.3-6.9,11.7-13.5s-6.7-19.8-12.7-29.3S251.4,102.6,247.3,105.6z" style="stroke: rgb(38, 50, 56);"></path>	<path class="st13" d="M243.8,117.6c0,0,4.5-6,8.1-7.2" style="stroke: rgb(38, 50, 56);"></path>	<path class="st12" d="M258.4,113.1c0.3,2,1.5,3.8,3.2,5c3,2.2,8.5,5.9,8.3,10.3c-0.2,4.3-3.6,2.4-6.1,1.8s-4.2,1.8-6.9,0		s-0.8-4.4,1.6-4" style="stroke: rgb(38, 50, 56);"></path>	<path class="st8" d="M248.7,131.2c0,0,1.8,4.1,8.9,5c7.1,0.9,16.2-4.2,16.2-4.2" style="stroke: rgb(38, 50, 56);"></path>	<line class="st8" x1="245.1" y1="122.2" x2="253.4" y2="118.9" style="stroke: rgb(38, 50, 56);"></line>	<path class="st3" d="M247.5,121.4c0.2,1,1.2,1.6,2.2,1.4c1.8-0.2,1.6-2.8,1.6-2.8L247.5,121.4z" style="fill: rgb(38, 50, 56);"></path>	<path class="st3" d="M264,117.9c-0.2,1,0.4,1.9,1.4,2.2c1.7,0.5,2.6-2,2.6-2L264,117.9z" style="fill: rgb(38, 50, 56);"></path>	<line class="st8" x1="262.4" y1="117.8" x2="269.2" y2="118.1" style="stroke: rgb(38, 50, 56);"></line>	<path class="st13" d="M260.3,112.3h8" style="stroke: rgb(38, 50, 56);"></path>	<path class="st8" d="M270.2,154.7c0,0-14.3,6.1-22.8-1.2" style="stroke: rgb(38, 50, 56);"></path>	<path class="st8" d="M254,180.4c1.9-0.4,4-0.3,5.8,0.3c2.1,0.9,4.1,2,5.8,3.5c1-1.5,2.1-2.8,3.3-4.1c1.3-1,2.8-1.9,4.3-2.7" style="stroke: rgb(38, 50, 56);"></path>	<path class="st8" d="M266.1,187.5c0,0,4.7,10.6,4.6,13.4" style="stroke: rgb(38, 50, 56);"></path>	<path class="st14" d="M303.5,275.5c4.8-11.4,3.9-28.2,0.9-43.7c-49.1-2.4-95.2,11-95.2,11v0.2c7.8,13.6,17.5,25.4,23.6,33.1		c7.3,9.1,10.5,15.2,6.5,27.7s-12.7,16.4-9.7,32.1c2.7,14.1,15.9,19.8,28.9,15.7c7.1-2.2,10.4-7.1,16.1-11c5.3-3.7,13.6-4.7,20-4.8		c0,0-3.6-4.2-13.3-1.4s-19.4,10.5-26.9,10.3s-7.1-15.6,3.2-26.9S294.4,296.9,303.5,275.5z" style="fill: rgb(147, 168, 226); stroke: rgb(0, 0, 0);"></path>	<path class="st6" d="M228.7,232.7c0,0,41.8-13.7,72.2-6.9l3.3,25.1c0,0-49.3-3.5-72.9,4.6L228.7,232.7z" style="fill: rgb(38, 50, 56); stroke: rgb(38, 50, 56);"></path>	<path class="st15" d="M275.3,167.8c0,0,7.3,24.9,12.2,51s4.3,43.3,4.3,43.3s9.4,2.6,17.4,1.1c4.9-0.9,9.5-2.8,13.6-5.6		c0,0-0.1-29.9-11.4-55.9s-18.6-32.2-18.6-32.2S277.4,167.8,275.3,167.8z" style="fill: rgb(212, 151, 255); stroke: rgb(38, 50, 56);"></path>	<path class="st7" d="M309.2,263.3c4.9-0.9,9.5-2.8,13.6-5.6c0,0-0.2-2-0.7-5.5c-22.9,7.8-24.6,3.4-24.6,3.4c0-0.4,0-0.8-0.1-1.2		c-1.4-23.8-13.3-73.2-16.5-86.1c-2.6-0.3-4.9-0.5-5.6-0.5c0,0,7.3,24.9,12.2,51s4.3,43.3,4.3,43.3S301.1,264.7,309.2,263.3z" style="fill: rgb(255, 235, 237); stroke: rgb(38, 50, 56);"></path>	<path class="st15" d="M205.4,174c0,0,12.1,17.6,14.3,30.6s0.5,20.4-3.3,22.4s-8.3,0.5-8.3,0.5s-0.7,26.2-5.1,38.5		c0,0,12,6.5,30.9,6s31.1-4,31.1-4c0.1-19.8-3.5-39.5-10.6-58c-11.8-29.6-25.1-40.4-26.6-41.7s-2.3-2.2-2.3-2.2		S208.3,173.4,205.4,174z" style="fill: rgb(212, 151, 255); stroke: rgb(38, 50, 56);"></path>	<path class="st7" d="M264.8,267.8v-0.3c0-0.1,0-0.1,0-0.2v-0.5c0-0.2,0-0.4,0-0.6v-0.8c0-0.1,0-0.2,0-0.4v-0.5c0-0.1,0-0.3,0-0.4		s0-0.4,0-0.6s0-0.3,0-0.5c0-0.3,0-0.7,0-1.1c0-0.1,0-0.3,0-0.4v-0.8c0-0.2,0-0.4,0-0.6s0-0.5,0-0.8v-0.6c0-0.3,0-0.6,0-0.9		s0-0.4,0-0.6c0-0.4,0-0.8-0.1-1.1c0-0.1,0-0.3,0-0.4l0,0c-1.1-15.7-4.6-31-10.2-45.7c-11.8-29.6-25.1-40.4-26.6-41.7		s-2.3-2.2-2.3-2.2s-2,0.9-4.8,2c4.5,3.8,18,16.5,26.5,38.8c9,23.6,10.9,35.6,11.4,51c-22.8,7.8-44.4,4.1-53.9,1.7		c-0.4,2.1-1,4.2-1.8,6.2c0,0,12,6.5,30.9,6c8.1-0.2,16.1-1,24.1-2.4l0,0c3.9-0.7,6.3-1.4,6.9-1.5l0,0h0.1v-0.3L264.8,267.8z" style="fill: rgb(255, 235, 237); stroke: rgb(38, 50, 56);"></path>	<path class="st9" d="M320.6,202.5c0,0-12.2-3.2-29.9,3.5c-7.8,2.9-21.4,7.9-27,10.1s-9.6,3.9-8.7,6.1s33.6,4.4,47.3,7.6		s28.2,0.5,32.6-4.2s2.2-13.4,0.8-16.6c-0.5-1.3-1.2-2.6-2-3.8" style="fill: rgb(255, 235, 237);"></path>	<g>		<defs>			<path id="SVGID_00000054947837168293891720000003177712797090183574_" d="M320.6,202.5c0,0-12.2-3.2-29.9,3.5				c-7.8,2.9-21.4,7.9-27,10.1s-9.6,3.9-8.7,6.1s33.6,4.4,47.3,7.6s28.2,0.5,32.6-4.2s2.2-13.4,0.8-16.6c-0.5-1.3-1.2-2.6-2-3.8" style="fill: rgb(0, 0, 0);"></path>		</defs>		<clipPath id="SVGID_00000126312505931018134480000000107092332824692115_">			<use xlink:href="#SVGID_00000054947837168293891720000003177712797090183574_" style="overflow:visible;"></use>		</clipPath>		<g style="clip-path:url(#SVGID_00000126312505931018134480000000107092332824692115_);">			<path class="st11" d="M335.9,209.4c-3.8-2.1-8.2-2.9-12.5-2.2c-12.1,1.9-21.1,4.5-11.8,4.5s23.4-2.2,22.7,1.3				s-5.3,10.2-12.5,10.6s-35.8-3.8-38.1-6.4s5.8-9.9,5.8-9.9l-1.3-0.4c-7.9,2.9-19.5,7.2-24.5,9.2c-5.5,2.2-9.6,3.9-8.7,6.1				c0.9,2.2,33.6,4.4,47.3,7.6s28.2,0.5,32.6-4.2C339.1,221,337.4,213,335.9,209.4z" style="fill: rgb(229, 179, 189);"></path>		</g>	</g>	<path class="st8" d="M320.6,202.5c0,0-12.2-3.2-29.9,3.5c-7.8,2.9-21.4,7.9-27,10.1s-9.6,3.9-8.7,6.1s33.6,4.4,47.3,7.6		s28.2,0.5,32.6-4.2s2.2-13.4,0.8-16.6c-0.5-1.3-1.2-2.6-2-3.8" style="stroke: rgb(38, 50, 56);"></path>	<path class="st9" d="M207.4,173.5c0,0-10.4,0.9-17.1,8.5s-4.1,15.8-4.4,16.9s-4.7,6.5-2.8,17.8s9.4,24.4,13.7,24.6		s14.8-7.4,19.7-12.3s8.4-14,6-24.7s-4.1-12.4-5.5-16.6S207.4,173.5,207.4,173.5z" style="fill: rgb(255, 235, 237);"></path>	<g>		<defs>			<path id="SVGID_00000156566536652750364590000011491795518414943415_" d="M207.4,173.5c0,0-10.4,0.9-17.1,8.5s-4.1,15.8-4.4,16.9				s-4.7,6.5-2.8,17.8s9.4,24.4,13.7,24.6s14.8-7.4,19.7-12.3s8.4-14,6-24.7s-4.1-12.4-5.5-16.6S207.4,173.5,207.4,173.5z" style="fill: rgb(0, 0, 0);"></path>		</defs>		<clipPath id="SVGID_00000094601028971713047420000007245634951986128274_">			<use xlink:href="#SVGID_00000156566536652750364590000011491795518414943415_" style="overflow:visible;"></use>		</clipPath>		<g style="clip-path:url(#SVGID_00000094601028971713047420000007245634951986128274_);">			<path class="st11" d="M207.4,173.5c0,0-10.4,0.9-17.1,8.5s-4.1,15.8-4.4,16.9s-4.7,6.5-2.8,17.8s9.4,24.4,13.7,24.6				c3.1,0.1,9.4-3.8,14.6-7.8c-1.2-2.4-2.9-4.6-5-6.3c-5.9-4.3-13.2-9.4-15.6-11.3s-4.3-9.4,4-14.3s19.9,0,19.9,0				c1.8-0.4,3.1-1.9,3-3.8c0-3.2-2.4-5.9-3.8-4s-10.2,1.1-14-0.3s-6.7-6.5-1.9-12.4S207.4,173.5,207.4,173.5z" style="fill: rgb(229, 179, 189);"></path>		</g>	</g>	<path class="st8" d="M207.4,173.5c0,0-10.4,0.9-17.1,8.5s-4.1,15.8-4.4,16.9s-4.7,6.5-2.8,17.8s9.4,24.4,13.7,24.6		s14.8-7.4,19.7-12.3s8.4-14,6-24.7s-4.1-12.4-5.5-16.6S207.4,173.5,207.4,173.5z" style="stroke: rgb(38, 50, 56);"></path>	<path class="st9" d="M202,213.5c5.8-2.5,11.7-4.7,17.8-6.5c7.2-1.9,30.6-2.2,39.6-2.2s14.3-0.3,17.8-0.3c3.3,0.1,6.5,0.5,9.8,1		c0.7,0.1,1.4,0.1,2,0.1l0.9,0.2c0,0-28.2,15.4-38.1,21.8s-31.5,11.8-42.4,13.9s-17.5,2.7-20.5-4.6c-1.8-4.5-3-9.2-3.6-14" style="fill: rgb(255, 235, 237);"></path>	<g>		<defs>			<path id="SVGID_00000007422077881810093500000007304482792360725416_" d="M202,213.5c5.8-2.5,11.7-4.7,17.8-6.5				c7.2-1.9,30.6-2.2,39.6-2.2s14.3-0.3,17.8-0.3c3.3,0.1,6.5,0.5,9.8,1c0.7,0.1,1.4,0.1,2,0.1l0.9,0.2c0,0-28.2,15.4-38.1,21.8				s-31.5,11.8-42.4,13.9s-17.5,2.7-20.5-4.6c-1.8-4.5-3-9.2-3.6-14" style="fill: rgb(0, 0, 0);"></path>		</defs>		<clipPath id="SVGID_00000045587367769233810480000003173430125032716710_">			<use xlink:href="#SVGID_00000007422077881810093500000007304482792360725416_" style="overflow:visible;"></use>		</clipPath>		<g style="clip-path:url(#SVGID_00000045587367769233810480000003173430125032716710_);">			<path class="st11" d="M209.4,241.4c10.9-2,32.5-7.6,42.4-13.9c4.1-2.6,11.4-6.9,18.6-10.9c0.7-0.9,0.8-1.6,0.4-2.2				c-1.6-2.1-24.8-3.5-31.3-3.5s-12.1,4.3-10,4.6s16.2-0.8,6.7,1.4s-22.9,7-33.7,4.8c-3.3-0.7-6.4-2-9.1-3.9l-8.2,5				c0.6,4.8,1.8,9.5,3.6,14C191.8,244.1,198.5,243.4,209.4,241.4z" style="fill: rgb(229, 179, 189);"></path>		</g>	</g>	<path class="st8" d="M202,213.5c5.8-2.5,11.7-4.7,17.8-6.5c7.2-1.9,30.6-2.2,39.6-2.2s14.3-0.3,17.8-0.3c3.3,0.1,6.5,0.5,9.8,1		c0.7,0.1,1.4,0.1,2,0.1l0.9,0.2c0,0-28.2,15.4-38.1,21.8s-31.5,11.8-42.4,13.9s-17.5,2.7-20.5-4.6c-1.8-4.5-3-9.2-3.6-14" style="stroke: rgb(38, 50, 56);"></path>	<path class="st6" d="M289.9,205.8l-0.9-0.2c-0.7,0-1.4-0.1-2-0.1c-3.2-0.5-6.5-0.9-9.8-1c-3.5,0-8.8,0.3-17.8,0.3		c-2.7,0-6.8,0-11.3,0.1c2.8,4.9,6.5,13,6.2,21C265.7,219,289.9,205.8,289.9,205.8z" style="fill: rgb(38, 50, 56); stroke: rgb(38, 50, 56);"></path>	<path class="st6" d="M220.3,200.6c0,0-12.8-14.5-34.4-1.8c-2.6,2.5-3.9,6.1-3.5,9.7c0,0,20-15.1,39.2-1.9		C222.2,204.5,221.7,202.3,220.3,200.6z" style="fill: rgb(38, 50, 56); stroke: rgb(38, 50, 56);"></path>	<path class="st3" d="M253.7,130.5c-0.2-0.1-0.3-0.3-0.5-0.5l-0.5-0.6c-0.3-0.4-0.7-0.7-1.1-1.1c-0.8-0.8-1.8-1.2-2.9-1.4		c-1.1-0.1-2.2,0.2-3.1,0.8c-0.5,0.2-0.9,0.5-1.3,0.9l-0.6,0.5l-0.5,0.6c-0.7,0.8-1.2,1.7-1.6,2.7c-0.7,1.9-1,4-1,6c0,2,0.2,4,0.7,6		c0.5,2,1.1,3.8,1.6,5.7l1.6,5.6c1.1,3.8,2.1,7.5,3.1,11.3s1.8,7.6,2.5,11.4s1.2,7.7,0.2,11.4c-0.2,0.4-0.3,0.9-0.5,1.3		c-0.2,0.4-0.4,0.8-0.7,1.1c-0.5,0.7-1.4,1.1-2.3,1.1c-0.9-0.1-1.8-0.4-2.6-1c-0.8-0.5-1.4-1.4-1.6-2.3c0.2,1,0.7,1.9,1.5,2.5		c0.8,0.7,1.7,1.2,2.7,1.3c1.1,0.1,2.1-0.3,2.9-1.1c0.4-0.4,0.7-0.8,0.9-1.2c0.2-0.4,0.4-0.9,0.6-1.4c0.6-1.9,0.9-4,0.9-6		c0-1-0.1-2-0.1-3s-0.2-2-0.3-2.9c-1.2-7.8-2.9-15.5-5.2-23l-1.7-5.6c-0.6-1.9-1.2-3.8-1.6-5.6c-0.9-3.7-1.2-7.6,0-11.1		c0.3-0.8,0.7-1.6,1.3-2.4c0.6-0.7,1.2-1.3,2-1.8c0.7-0.5,1.6-0.8,2.4-0.8c0.9,0.1,1.7,0.4,2.4,1c0.4,0.3,0.7,0.6,1,0.9l0.5,0.5		c0.2,0.2,0.4,0.4,0.6,0.5c0.8,0.6,1.8,1,2.8,1.3c1.9,0.5,3.8,0.9,5.8,0.9c-1.9-0.3-3.8-0.8-5.6-1.4		C255.3,131.5,254.4,131.1,253.7,130.5z" style="fill: rgb(38, 50, 56);"></path>	<path class="st3" d="M287.2,189.6c0.1,0.9-0.1,1.8-0.5,2.6c-0.2,0.4-0.6,0.6-1,0.6c-0.4,0-0.8-0.1-1.2-0.3		c-0.8-0.3-1.1-1.1-1.4-1.9c-0.2-0.9-0.4-1.7-0.5-2.6c-0.3-3.6-0.3-7.2-0.1-10.9c0.2-3.6,0.4-7.2,0.8-10.9s0.7-7.2,1.2-10.8		s1-7.2,1.3-10.9c0.1-1.8,0.3-3.7,0.3-5.5c0-1.9-0.1-3.8-0.4-5.6c-0.2-1-0.5-1.9-1-2.8c-0.5-0.9-1.2-1.7-2-2.2c-0.9-0.6-2-0.8-3-0.7		c-1,0.1-1.9,0.4-2.8,0.9c-0.8,0.4-1.6,1-2.4,1.4c-0.8,0.4-1.6,0.8-2.5,1.1c-1.7,0.6-3.5,1.1-5.3,1.5c1.8-0.2,3.6-0.5,5.4-1		c0.9-0.2,1.8-0.6,2.6-0.9c0.9-0.4,1.6-0.9,2.4-1.2c0.8-0.4,1.6-0.6,2.5-0.7c0.8,0,1.6,0.2,2.2,0.6c0.6,0.5,1.1,1.2,1.5,1.9		c0.4,0.8,0.6,1.6,0.7,2.4c0.4,3.6,0.3,7.1-0.2,10.7c-0.4,3.6-0.9,7.2-1.4,10.8c-1,7.3-1.5,14.6-1.6,21.9c-0.1,3.7,0.2,7.4,0.7,11		c0.2,0.9,0.4,1.8,0.7,2.7c0.2,0.5,0.4,0.9,0.7,1.3c0.3,0.4,0.7,0.7,1.2,0.9c0.5,0.2,1,0.3,1.5,0.2c0.5-0.1,1-0.4,1.2-0.9		C287.3,191.5,287.4,190.6,287.2,189.6z" style="fill: rgb(38, 50, 56);"></path></g><g id="freepik--Lamp--inject-236">	<path class="st19" d="M346.3,381l0.6,11.5l9.5-0.5l-0.6-11C355.8,380.9,352.3,376.9,346.3,381z" style="fill: rgb(178, 226, 147); stroke: rgb(38, 50, 56);"></path>	<path class="st19" d="M384.3,403.9c-0.5,0-1,0-1.5-0.1c-29-7.5-59.1-0.6-59.4-0.6c-2.6,0.5-5.2-1.2-5.7-3.9c-0.5-2.5,1-4.9,3.5-5.6		c1.3-0.3,32.7-7.5,64,0.6c2.6,0.7,4.1,3.3,3.4,5.9C388.1,402.3,386.3,403.7,384.3,403.9L384.3,403.9z" style="fill: rgb(178, 226, 147); stroke: rgb(38, 50, 56);"></path>	<path class="st19" d="M356.7,332.2c-0.1,1.3-2.4,2.1-5.1,2s-4.9-1.3-4.9-2.6s2.4-2.1,5.1-2S356.8,330.9,356.7,332.2z" style="fill: rgb(178, 226, 147); stroke: rgb(38, 50, 56);"></path>	<path class="st19" d="M357.8,335.9c-0.1,1.5-2.9,2.6-6.2,2.4s-6-1.6-5.9-3.1s2.9-2.6,6.2-2.4S357.9,334.4,357.8,335.9z" style="fill: rgb(178, 226, 147); stroke: rgb(38, 50, 56);"></path>	<path class="st19" d="M363.1,341.6c-0.2,2.9-5.4,4.9-11.7,4.5s-11.2-3-11.1-5.9s5.4-4.9,11.7-4.5S363.3,338.8,363.1,341.6z" style="fill: rgb(178, 226, 147); stroke: rgb(38, 50, 56);"></path>	<path class="st19" d="M370.5,351.5c-0.3,4.7-8.9,8.1-19.3,7.5s-18.5-5-18.2-9.7s8.9-8.1,19.3-7.5S370.8,346.7,370.5,351.5z" style="fill: rgb(178, 226, 147); stroke: rgb(38, 50, 56);"></path>	<path class="st6" d="M381.3,349.2c3.4-1.9,7.6-1.4,10.5,1.2c5.1,4.4,6,12.8,2.6,15.4s-2.8,3.3-9.5,2.1s0.5,3.7,8.6,1.4		s10.5-8.4,8.6-16.1s-8.6-13.3-14.9-11.2S381.3,349.2,381.3,349.2z" style="fill: rgb(38, 50, 56); stroke: rgb(38, 50, 56);"></path>	<path class="st19" d="M375.6,343.7c0,0-13.1,6.9-26.6,5.2s-16.6-9.9-31-16.3s-21.4,2-21.3,3.6s3.3-1.1,8.7,0.8s10.3,6.5,12.1,17		s8.6,23,18.2,26.4s20.3,1.2,26.8-2.2s10.7-9.4,13.3-17.6s7.8-14.4,12.4-14.6c10.1-0.4,14.5,12.4,9.5,19.6		c-3.7,5.2-11.4,3.8-14.9,0.7s-4.2-5.2-5.8-1.4s-0.3,6.5,4.4,7.8c6.1,2.6,13.1,2,18.7-1.5c9.8-6,4.4-25.6-2.9-31.1		S379.6,338.5,375.6,343.7z" style="fill: rgb(178, 226, 147); stroke: rgb(38, 50, 56);"></path>	<path class="st6" d="M354.5,381c-1.6-0.1-3.4-0.3-5.3-0.5c-11.7-1.3-16-12.5-24.5-28.5s-18.5-15.2-18.5-15.2l-0.1,0.3		c5.1,2,9.7,6.7,11.4,16.8c1.8,10.5,8.6,23,18.2,26.4C341.7,382.3,348.3,382.6,354.5,381z" style="fill: rgb(38, 50, 56); stroke: rgb(38, 50, 56);"></path>	<path class="st9" d="M340.3,360.8c0,0-2.5-0.6-1.8-5.4s-2-8.7-4.7-8.7s-2.1,2.2-0.3,3.2c1.2,0.7,2.2,1.7,2.9,3c0,0-4.9-0.5-7.1-3.7		s-2.9-9.4-7.3-11.4s-3.1,1.8-1,3.5c2.9,2.5,5.2,5.7,6.7,9.2c1.7,4,4.1,5.5,5.5,5.8c0.7,0.1,1.4,0.2,2.1,0.2c0.3,2,0.8,4.1,1.5,6		c1,2.7,4.3,1.7,4.3,1.7L340.3,360.8z" style="fill: rgb(255, 235, 237);"></path>	<path class="st9" d="M349.3,369.6c0,0-3.4-3.5-4.6-1.3s2.6,5.9,5.4,4.4s3.6-8.5-0.6-11.9s-11.2-0.9-11.7,2.6s4.1,5.4,4.1,5.4		s-1.6-4.8,2.6-5.4S349.6,367.7,349.3,369.6z" style="fill: rgb(255, 235, 237);"></path>	<path class="st9" d="M365,363.5c0,0,1.9-0.5,1.4-4.3s1.5-6.9,3.7-6.9s1.7,1.8,0.2,2.5c-1,0.6-1.8,1.4-2.3,2.4c0,0,3.9-0.4,5.7-3		s2.3-7.5,5.7-9.1s2.5,1.4,0.8,2.8c-2.3,2-4.1,4.5-5.3,7.3c-1.4,3.2-3.2,4.4-4.3,4.6c-0.6,0.1-1.1,0.1-1.7,0.1		c-0.2,1.6-0.6,3.2-1.2,4.8c-0.8,2.1-3.4,1.4-3.4,1.4L365,363.5z" style="fill: rgb(255, 235, 237);"></path>	<path class="st9" d="M356.8,369.7c0,0,3.1-3.2,4.2-1.2s-2.4,5.5-5,4.1s-3.4-7.9,0.5-11s10.4-0.9,10.8,2.3s-3.7,5-3.7,5		s1.5-4.4-2.4-5S356.4,367.9,356.8,369.7z" style="fill: rgb(255, 235, 237);"></path></g></svg>